<?xml version="1.0" encoding="UTF-8"?>
<svg id="Layer_2" data-name="Layer 2" xmlns="http://www.w3.org/2000/svg" viewBox="0 0 69.86 69.86">
  <defs>
    <style>
      .cls-1 {
        fill: #0089c8;
      }

      .cls-1, .cls-2 {
        stroke-width: 0px;
      }

      .cls-2 {
        fill: none;
      }
    </style>
  </defs>
  <g id="Main_content" data-name="Main content">
    <rect class="cls-2" width="69.86" height="69.86"/>
    <g>
      <path class="cls-1" d="m47.69,40.12c-.43,0-.97-.15-1.58-.45-.62-.3-1.12-.57-1.5-.81-.38-.24-.94-.65-1.66-1.22-.73-.57-1.12-.85-1.18-.85-6.6-4.81-11.3-8.3-14.11-10.46-.49-.38-.73-.89-.73-1.54v-1.54c0-1.08.38-2,1.13-2.76.76-.76,1.68-1.14,2.76-1.14h33.74c1.08,0,2,.38,2.76,1.14.76.76,1.13,1.68,1.13,2.76v1.54c0,.65-.24,1.16-.73,1.54-2.65,2.06-7.35,5.55-14.11,10.46-.05,0-.45.29-1.17.85-.73.57-1.29.97-1.66,1.22-.38.25-.88.52-1.51.81-.62.3-1.14.45-1.57.45Zm7.46-1.3c6.38-4.59,10.54-7.65,12.49-9.16.16-.16.34-.19.53-.08.19.11.28.27.28.49v16.55c0,1.08-.38,2-1.13,2.76-.76.76-1.68,1.13-2.76,1.13H30.82c-1.08,0-2-.38-2.76-1.13-.75-.76-1.13-1.68-1.13-2.76v-16.55c0-.21.1-.36.28-.44.19-.08.37-.07.52.04,1.79,1.35,5.95,4.4,12.49,9.16.11.11.47.41,1.09.89.63.49,1.12.85,1.5,1.09.38.24.86.54,1.46.89.6.35,1.18.61,1.75.77.57.17,1.12.25,1.66.25s1.09-.08,1.66-.25c.57-.16,1.16-.42,1.78-.77.62-.35,1.12-.66,1.5-.93.38-.27.87-.64,1.46-1.09.59-.46.95-.75,1.05-.85h0Z"/>
      <path class="cls-1" d="m18.68,26.62h-6.74c-1.16,0-2.11-.94-2.11-2.11s.94-2.11,2.11-2.11h6.74c1.16,0,2.11.94,2.11,2.11s-.94,2.11-2.11,2.11Z"/>
      <path class="cls-1" d="m18.68,37.58H6.89c-1.16,0-2.11-.94-2.11-2.11s.94-2.11,2.11-2.11h11.79c1.16,0,2.11.94,2.11,2.11s-.94,2.11-2.11,2.11Z"/>
      <path class="cls-1" d="m18.68,48.53H3.52c-1.16,0-2.11-.94-2.11-2.11s.94-2.11,2.11-2.11h15.16c1.16,0,2.11.94,2.11,2.11s-.94,2.11-2.11,2.11Z"/>
    </g>
  </g>
</svg>