<?xml version="1.0" encoding="UTF-8"?>
<svg id="Layer_2" data-name="Layer 2" xmlns="http://www.w3.org/2000/svg" viewBox="0 0 250.5 112.3">
  <defs>
    <style>
      .cls-1 {
        fill: red;
      }

      .cls-1, .cls-2 {
        stroke-width: 0px;
      }

      .cls-2 {
        fill: #005aa2;
      }
    </style>
  </defs>
  <g id="TOP_NAV" data-name="TOP NAV">
    <g>
      <g>
        <path class="cls-2" d="m78.81,48.14c7.2-6.36,12.12-9.54,14.76-9.54,1.26,0,1.89.69,1.89,2.07,0,.67-.44,2.34-1.33,5.03l-6.03,17.9c-.17.69-.26,1.22-.26,1.59,0,.52.22.78.67.78.69,0,2.26-1.04,4.7-3.11l1.74,1.74c-3.06,2.98-5.97,5.31-8.75,6.97-2.77,1.66-4.91,2.5-6.42,2.5s-2.26-.64-2.26-1.92c0-1.16,1.1-4.83,3.29-11.02l2.66-7.43c.99-2.79,1.48-4.48,1.48-5.07s-.24-.92-.7-.92-1.73.81-3.77,2.44l-1.66-2Z"/>
        <path class="cls-1" d="m95.66,25.04c1.13,0,2.07.4,2.81,1.2.74.8,1.11,1.78,1.11,2.94,0,1.65-.53,3.24-1.59,4.77-1.06,1.53-2.37,2.29-3.92,2.29-1.06,0-2-.37-2.81-1.11-.81-.74-1.22-1.84-1.22-3.29,0-1.68.54-3.23,1.61-4.66,1.07-1.43,2.41-2.14,4.01-2.14Z"/>
        <path class="cls-2" d="m134.18,64.6c-3.08,3.18-5.92,5.55-8.51,7.12-2.59,1.57-4.76,2.35-6.51,2.35-.69,0-1.29-.22-1.79-.67-.51-.44-.76-.99-.76-1.63,0-.71.2-1.69.59-2.92l4.48-13.24c1.55-4.61,2.33-7.15,2.33-7.62,0-.76-.32-1.15-.96-1.15-1.14,0-2.93,1.33-5.4,3.98-2.47,2.65-4.34,5.14-5.62,7.47-1.28,2.33-2.93,7.23-4.96,14.7-3.87,0-6.93.12-9.17.37,1.18-3.58,2.65-8.27,4.4-14.09l8.28-27.63c.69-2.39,1.04-3.76,1.04-4.11,0-.76-.46-1.15-1.37-1.15-.81,0-2.01.14-3.59.41l.78-2.66c6.04-1.43,10.89-3.09,14.54-4.99l1.59,1.44c-2.05,4.69-3.86,9.54-5.44,14.57l-4.18,13.28c-.54,1.95-.92,3.12-1.15,3.51l.15.15c3.65-4.78,7.02-8.23,10.1-10.34,3.08-2.11,5.63-3.16,7.66-3.16.91,0,1.69.27,2.35.8.65.53.98,1.3.98,2.31,0,1.87-1.11,5.89-3.33,12.06-2.22,6.41-3.33,10.12-3.33,11.13,0,.64.22.96.67.96.71,0,2.26-1.02,4.62-3.07l1.52,1.81Z"/>
        <path class="cls-2" d="m163.47,40.19c-.79,1.11-1.52,2.38-2.18,3.81-2.02-.2-4.53-.33-7.51-.41-1.04,2.98-2.28,7.06-3.74,12.24-1.46,5.18-2.18,8.22-2.18,9.14,0,.76.31,1.15.92,1.15,1.23,0,3.33-1.32,6.29-3.96l1.74,1.96c-3.7,3.48-6.95,6-9.75,7.58-2.8,1.58-5.01,2.37-6.64,2.37-.86,0-1.59-.26-2.17-.78s-.87-1.27-.87-2.26c0-.89.38-2.59,1.15-5.1l6.73-22.41c-1.82,0-3.41.02-4.77.07l.7-2.55c5.72-1.87,10.44-5.84,14.17-11.91h3.25c-1.9,5.2-3.13,8.77-3.7,10.69,4.49,0,7.21-.15,8.17-.44l.37.81Z"/>
      </g>
      <path class="cls-2" d="m108.85,88.1c-24.02-.75-50.78-9.63-54.1-26.89-1.6-8.34.99-18.2,7.97-26.55C78.4,15.86,105.86,2.26,133.67.22c18.78-1.38,31.68,3.74,38.71,14.06,5.85,8.59,7.39,18.78,1.99,30-3.83,7.97-7.58,12.88-17.8,20.29l-3.98-.37c10.2-7.4,13.93-15.8,16.8-21.78,4.13-8.58,2.58-19.22-1.62-25.39-5.36-7.87-16.04-12.36-31.87-11.2-25.3,1.85-53.02,13.82-68.71,34.23-5.25,6.83-7.61,13.61-5.85,19.54,4.03,13.57,16.63,19.91,41.53,22.65,39.58,4.36,97.04-13.73,109.37-18.21l-.04,1.04c-12.7,6.06-30.08,12.82-50.24,17.05-14.56,3.05-33.65,5.97-53.11,5.97Z"/>
      <g>
        <path class="cls-2" d="m2.15,109.42H0v-11.52h2.15v11.52Z"/>
        <path class="cls-2" d="m4.39,109.42v-8.17h1.2c.26,0,.42.12.5.36l.14.65c.17-.17.34-.32.52-.46.18-.14.38-.26.58-.36.2-.1.42-.18.66-.23.23-.05.49-.08.76-.08.45,0,.84.08,1.19.23.35.15.63.36.86.64.23.27.41.6.53.98.12.38.18.8.18,1.25v5.2h-1.97v-5.2c0-.5-.12-.89-.35-1.16-.23-.27-.58-.41-1.04-.41-.34,0-.66.08-.96.23-.3.15-.58.36-.84.63v5.91h-1.97Z"/>
        <path class="cls-2" d="m26.35,109.42h-2.16v-5.03h-5.4v5.03h-2.16v-11.52h2.16v4.96h5.4v-4.96h2.16v11.52Z"/>
        <path class="cls-2" d="m32.03,101.12c.61,0,1.16.1,1.66.29.5.2.92.48,1.27.84.35.36.62.8.81,1.32.19.52.29,1.1.29,1.74s-.1,1.23-.29,1.75c-.19.52-.46.96-.81,1.33-.35.37-.77.65-1.27.84-.5.2-1.05.29-1.66.29s-1.17-.1-1.67-.29c-.5-.2-.93-.48-1.28-.84-.35-.37-.63-.81-.82-1.33-.19-.52-.29-1.1-.29-1.75s.1-1.22.29-1.74c.19-.52.47-.96.82-1.32.35-.36.78-.64,1.28-.84.5-.2,1.05-.29,1.67-.29Zm0,6.91c.68,0,1.18-.23,1.51-.68.33-.46.49-1.13.49-2.01s-.16-1.55-.49-2.02c-.33-.46-.83-.69-1.51-.69s-1.2.23-1.53.7c-.33.46-.49,1.14-.49,2.01s.16,1.54.49,2c.33.46.84.69,1.53.69Z"/>
        <path class="cls-2" d="m39.34,101.25v5.19c0,.5.12.89.35,1.16.23.27.58.41,1.04.41.34,0,.66-.08.96-.23.3-.15.58-.36.84-.62v-5.91h1.97v8.17h-1.2c-.26,0-.42-.12-.5-.36l-.13-.65c-.17.17-.35.33-.53.47-.18.14-.37.26-.58.36-.2.1-.42.18-.66.23-.24.06-.49.08-.76.08-.45,0-.84-.08-1.18-.23-.34-.15-.63-.37-.87-.64-.23-.28-.41-.6-.53-.98-.12-.38-.18-.8-.18-1.25v-5.19h1.97Z"/>
        <path class="cls-2" d="m51.35,102.84c-.05.09-.11.15-.17.18-.06.03-.13.05-.22.05-.1,0-.2-.03-.31-.08-.11-.05-.24-.11-.38-.18-.14-.07-.31-.13-.49-.18-.18-.05-.4-.08-.65-.08-.39,0-.69.08-.92.25-.22.16-.33.38-.33.65,0,.18.06.32.17.44.11.12.27.22.45.31.19.09.4.17.64.24.24.07.48.15.73.23.25.09.49.18.73.29.24.11.45.25.64.41.19.17.34.37.45.6.11.23.17.52.17.84,0,.39-.07.76-.21,1.09-.14.33-.35.62-.63.86-.28.24-.62.43-1.02.57-.41.14-.87.2-1.4.2-.28,0-.56-.03-.83-.08-.27-.05-.53-.12-.77-.21s-.48-.2-.68-.32c-.21-.12-.39-.25-.55-.4l.45-.75c.06-.09.13-.16.21-.21.08-.05.18-.07.3-.07s.24.03.35.1c.11.07.24.14.38.22.14.08.31.15.51.22.19.07.44.1.74.1.23,0,.43-.03.6-.08.17-.06.31-.13.41-.22.11-.09.19-.2.24-.31.05-.12.08-.24.08-.37,0-.19-.06-.35-.17-.47-.11-.12-.27-.23-.45-.32s-.4-.17-.64-.24c-.24-.07-.49-.15-.74-.23-.25-.09-.5-.18-.74-.3-.24-.11-.46-.26-.64-.43s-.34-.39-.45-.65c-.11-.25-.17-.56-.17-.92,0-.33.07-.65.2-.96s.33-.57.59-.79.58-.41.96-.54c.38-.14.83-.2,1.33-.2.56,0,1.08.09,1.54.28.46.19.85.43,1.15.73l-.45.71Z"/>
        <path class="cls-2" d="m56.74,101.12c.52,0,.99.08,1.42.25.43.16.81.41,1.12.72.31.32.56.7.73,1.16.18.46.26.98.26,1.57,0,.15,0,.27-.02.37-.01.1-.04.18-.07.23-.03.06-.08.1-.14.12-.06.02-.13.04-.22.04h-5.05c.06.84.28,1.46.68,1.85.39.39.91.59,1.56.59.32,0,.59-.04.82-.11.23-.07.43-.16.61-.25.17-.09.32-.17.45-.25.13-.07.26-.11.38-.11.08,0,.15.02.21.05.06.03.11.08.15.14l.57.72c-.22.25-.46.47-.73.64-.27.17-.55.31-.85.41-.29.1-.6.18-.9.22-.31.04-.6.06-.89.06-.57,0-1.1-.09-1.59-.28-.49-.19-.91-.47-1.27-.84-.36-.37-.65-.83-.85-1.37-.21-.54-.31-1.17-.31-1.89,0-.56.09-1.08.27-1.57.18-.49.44-.92.78-1.28.34-.36.75-.65,1.23-.86.49-.21,1.03-.32,1.64-.32Zm.04,1.41c-.57,0-1.02.16-1.35.49-.32.32-.53.78-.62,1.38h3.7c0-.25-.03-.5-.1-.72-.07-.23-.17-.42-.32-.59-.14-.17-.32-.3-.54-.4-.22-.1-.47-.15-.76-.15Z"/>
        <path class="cls-2" d="m73.18,97.9v1.76h-3.46v9.76h-2.14v-9.76h-3.48v-1.76h9.09Z"/>
        <path class="cls-2" d="m73.04,109.42v-8.17h1.16c.2,0,.34.04.42.11.08.07.13.2.16.38l.12.99c.29-.5.63-.9,1.03-1.19.39-.29.83-.44,1.32-.44.4,0,.74.09,1,.28l-.26,1.47c-.02.1-.05.16-.1.2-.05.04-.12.06-.22.06-.08,0-.19-.02-.33-.06-.14-.04-.32-.06-.55-.06-.41,0-.76.11-1.05.34-.29.23-.54.56-.74.99v5.09h-1.97Z"/>
        <path class="cls-2" d="m85.72,109.42h-.88c-.19,0-.33-.03-.44-.08-.11-.06-.19-.17-.24-.34l-.17-.58c-.21.19-.41.35-.61.49-.2.14-.4.26-.62.35-.21.1-.44.17-.68.21-.24.05-.5.07-.8.07-.35,0-.66-.05-.96-.14-.29-.09-.54-.23-.75-.42-.21-.19-.37-.42-.49-.7-.12-.28-.17-.6-.17-.97,0-.31.08-.61.24-.92.16-.3.43-.57.81-.81.38-.24.88-.44,1.51-.6.63-.16,1.4-.24,2.33-.24v-.48c0-.55-.12-.96-.35-1.22-.23-.26-.57-.4-1.01-.4-.32,0-.58.04-.8.11-.21.07-.4.16-.55.25-.16.09-.3.18-.43.25-.13.07-.28.11-.44.11-.13,0-.25-.03-.34-.1-.1-.07-.17-.15-.23-.25l-.36-.63c.94-.86,2.07-1.29,3.4-1.29.48,0,.9.08,1.28.24.37.16.69.37.95.65.26.28.46.61.59,1,.14.39.2.81.2,1.27v5.16Zm-3.82-1.23c.2,0,.39-.02.56-.06.17-.04.33-.09.48-.16.15-.07.3-.16.44-.27.14-.11.28-.23.43-.38v-1.37c-.57,0-1.05.04-1.44.11-.38.07-.69.16-.93.28-.23.11-.4.24-.5.39-.1.15-.15.31-.15.49,0,.35.1.6.31.75.2.15.47.23.8.23Z"/>
        <path class="cls-2" d="m89.84,98.87c0,.17-.04.33-.1.48-.07.15-.16.28-.28.39-.11.11-.25.2-.4.27-.15.07-.32.1-.49.1s-.33-.03-.48-.1c-.15-.07-.28-.16-.39-.27-.11-.11-.2-.24-.27-.39-.07-.15-.1-.31-.1-.48s.03-.34.1-.49c.07-.15.15-.29.27-.4.11-.11.24-.2.39-.27.15-.07.31-.1.48-.1s.34.03.49.1c.15.07.29.16.4.27.11.11.21.24.28.4.07.15.1.32.1.49Zm-.29,2.38v8.17h-1.97v-8.17h1.97Z"/>
        <path class="cls-2" d="m91.55,109.42v-8.17h1.2c.26,0,.42.12.5.36l.14.65c.17-.17.34-.32.52-.46.18-.14.38-.26.58-.36.2-.1.42-.18.66-.23.23-.05.49-.08.76-.08.45,0,.84.08,1.19.23.35.15.63.36.86.64.23.27.41.6.53.98.12.38.18.8.18,1.25v5.2h-1.97v-5.2c0-.5-.12-.89-.35-1.16-.23-.27-.58-.41-1.04-.41-.34,0-.66.08-.96.23-.3.15-.58.36-.84.63v5.91h-1.97Z"/>
        <path class="cls-2" d="m102.79,98.87c0,.17-.03.33-.1.48-.07.15-.16.28-.28.39-.11.11-.25.2-.4.27-.15.07-.32.1-.49.1s-.33-.03-.48-.1c-.15-.07-.28-.16-.39-.27-.11-.11-.2-.24-.27-.39-.07-.15-.1-.31-.1-.48s.03-.34.1-.49c.07-.15.16-.29.27-.4.11-.11.24-.2.39-.27s.31-.1.48-.1.34.03.49.1c.15.07.29.16.4.27.11.11.21.24.28.4.07.15.1.32.1.49Zm-.29,2.38v8.17h-1.97v-8.17h1.97Z"/>
        <path class="cls-2" d="m104.49,109.42v-8.17h1.2c.26,0,.42.12.5.36l.14.65c.16-.17.34-.32.52-.46.18-.14.38-.26.58-.36.2-.1.42-.18.66-.23.23-.05.49-.08.76-.08.45,0,.84.08,1.19.23.35.15.63.36.86.64.23.27.41.6.53.98.12.38.18.8.18,1.25v5.2h-1.97v-5.2c0-.5-.12-.89-.35-1.16-.23-.27-.58-.41-1.04-.41-.34,0-.66.08-.96.23-.3.15-.58.36-.84.63v5.91h-1.97Z"/>
        <path class="cls-2" d="m116.3,101.11c.35,0,.68.04.99.11.31.07.59.18.85.31h2.35v.73c0,.12-.03.22-.1.29-.06.07-.17.12-.33.14l-.73.14c.05.14.09.28.12.44.03.15.04.32.04.49,0,.4-.08.77-.24,1.1-.16.33-.39.6-.67.83-.28.23-.62.41-1.01.53-.39.12-.81.19-1.27.19-.31,0-.61-.03-.9-.09-.25.16-.38.33-.38.52,0,.17.08.29.23.37.15.08.35.13.6.16.25.03.53.05.84.05s.63.01.96.04c.33.03.65.07.96.14.31.07.59.17.84.32.25.14.45.34.6.59.15.25.23.57.23.95,0,.36-.09.71-.27,1.06-.18.34-.44.64-.77.91-.34.27-.75.48-1.24.64-.49.16-1.05.24-1.67.24s-1.16-.06-1.62-.18c-.46-.12-.83-.28-1.13-.48-.3-.2-.52-.43-.67-.69-.15-.26-.22-.53-.22-.81,0-.38.12-.7.35-.96s.56-.47.97-.62c-.2-.11-.36-.26-.49-.45-.12-.19-.18-.43-.18-.73,0-.12.02-.25.06-.38.04-.13.11-.26.2-.39.09-.13.2-.25.33-.36.13-.11.29-.22.47-.31-.41-.22-.74-.52-.98-.89-.24-.37-.35-.81-.35-1.31,0-.4.08-.77.24-1.1.16-.33.39-.61.68-.84.29-.23.63-.41,1.03-.53.4-.12.83-.18,1.29-.18Zm2.16,8.66c0-.16-.05-.3-.14-.4s-.23-.18-.39-.24c-.17-.06-.36-.1-.58-.13-.22-.03-.45-.04-.7-.04h-.76c-.26,0-.52-.03-.76-.09-.22.12-.4.27-.54.43-.14.17-.2.36-.2.58,0,.14.03.28.11.4.07.12.19.23.34.32.16.09.36.16.61.21.25.05.55.08.92.08s.68-.03.95-.09c.27-.06.49-.14.66-.24.17-.1.3-.22.38-.36.08-.14.12-.29.12-.45Zm-2.16-4.63c.24,0,.46-.03.64-.1.18-.07.33-.16.45-.27.12-.12.21-.26.27-.42.06-.16.09-.35.09-.54,0-.4-.12-.72-.36-.96-.24-.24-.6-.35-1.09-.35s-.85.12-1.09.35c-.24.24-.36.56-.36.96,0,.19.03.37.09.53.06.16.15.31.27.43.12.12.27.21.45.28.18.07.39.1.63.1Z"/>
        <path class="cls-2" d="m129.02,97.78c.47,0,.89.07,1.25.22.37.14.69.33.95.57.26.24.47.51.62.82.15.31.24.63.27.96l-1.25.26s-.03,0-.05,0h-.05c-.09,0-.17-.02-.24-.08-.07-.05-.13-.13-.17-.23-.05-.14-.11-.27-.18-.39-.07-.12-.17-.23-.27-.33-.11-.09-.23-.17-.37-.22-.14-.06-.31-.08-.49-.08-.22,0-.42.04-.6.12-.18.08-.32.18-.45.31-.12.13-.22.28-.28.45-.06.17-.1.35-.1.55,0,.16.02.31.05.46.04.15.09.3.16.45.07.15.17.3.29.46.12.16.27.33.44.51l3.06,3.18c.18-.33.32-.69.42-1.06.11-.37.17-.75.21-1.13.01-.12.05-.22.12-.29.07-.07.17-.11.29-.11h1.23c0,.7-.11,1.37-.3,2.01-.2.64-.48,1.22-.84,1.76l2.41,2.5h-1.93c-.1,0-.19,0-.27-.02-.08-.01-.15-.03-.22-.06-.07-.03-.14-.07-.2-.12-.06-.05-.13-.11-.2-.18l-.8-.82c-.51.41-1.08.74-1.7.97-.62.23-1.3.35-2.03.35-.45,0-.88-.08-1.31-.23-.43-.15-.8-.37-1.14-.66-.34-.29-.6-.63-.81-1.04-.2-.41-.31-.86-.31-1.37,0-.36.06-.69.18-1.02.12-.32.28-.62.49-.9.21-.28.45-.53.74-.75.28-.22.6-.41.94-.57-.28-.4-.49-.79-.62-1.17-.13-.38-.2-.76-.2-1.14,0-.4.07-.78.22-1.14.15-.36.36-.67.64-.94.28-.27.62-.48,1.02-.63.4-.16.86-.24,1.37-.24Zm-2.77,8.32c0,.29.05.55.15.79.1.23.24.43.41.59.17.16.38.29.61.37.23.09.48.13.74.13.47,0,.89-.07,1.28-.22.39-.15.74-.35,1.06-.61l-3.03-3.11c-.43.28-.73.59-.93.93-.19.35-.29.72-.29,1.12Z"/>
        <path class="cls-2" d="m147.27,106.71c.12,0,.22.04.3.14l.84.92c-.47.58-1.04,1.02-1.72,1.33s-1.5.46-2.46.46c-.85,0-1.62-.15-2.31-.44-.68-.29-1.27-.7-1.75-1.22-.48-.52-.85-1.14-1.11-1.86-.26-.72-.39-1.51-.39-2.37s.14-1.66.43-2.38c.29-.72.69-1.34,1.21-1.86.52-.52,1.14-.93,1.87-1.21.72-.29,1.53-.43,2.4-.43s1.6.14,2.24.41c.64.27,1.19.64,1.64,1.09l-.72,1c-.04.06-.1.12-.16.17-.07.05-.16.07-.28.07s-.25-.05-.37-.14c-.13-.1-.29-.2-.49-.31-.2-.11-.44-.21-.74-.31-.3-.1-.68-.14-1.14-.14-.54,0-1.04.09-1.49.28-.45.19-.84.46-1.17.81-.33.35-.58.78-.77,1.28-.18.5-.27,1.07-.27,1.69s.09,1.22.27,1.73c.18.5.43.93.75,1.27.31.35.68.61,1.11.79.42.18.88.27,1.37.27.29,0,.56-.02.79-.05.24-.03.45-.08.65-.15.2-.07.39-.16.57-.27.18-.11.35-.24.53-.4.05-.05.11-.09.17-.12.06-.03.12-.04.19-.04Z"/>
        <path class="cls-2" d="m153.18,101.12c.61,0,1.16.1,1.66.29.5.2.92.48,1.27.84.35.36.62.8.81,1.32.19.52.29,1.1.29,1.74s-.1,1.23-.29,1.75c-.19.52-.46.96-.81,1.33-.35.37-.77.65-1.27.84-.5.2-1.05.29-1.66.29s-1.17-.1-1.67-.29c-.5-.2-.93-.48-1.28-.84-.35-.37-.63-.81-.82-1.33-.19-.52-.29-1.1-.29-1.75s.1-1.22.29-1.74c.19-.52.47-.96.82-1.32.35-.36.78-.64,1.28-.84.5-.2,1.05-.29,1.67-.29Zm0,6.91c.68,0,1.18-.23,1.51-.68.33-.46.49-1.13.49-2.01s-.16-1.55-.49-2.02c-.33-.46-.83-.69-1.51-.69s-1.2.23-1.53.7c-.33.46-.49,1.14-.49,2.01s.16,1.54.49,2c.33.46.84.69,1.53.69Z"/>
        <path class="cls-2" d="m158.64,109.42v-8.17h1.2c.26,0,.42.12.5.36l.14.65c.16-.17.34-.32.52-.46.18-.14.38-.26.58-.36.2-.1.42-.18.66-.23.23-.05.49-.08.76-.08.45,0,.84.08,1.19.23.35.15.63.36.86.64.23.27.41.6.53.98.12.38.18.8.18,1.25v5.2h-1.97v-5.2c0-.5-.12-.89-.35-1.16-.23-.27-.58-.41-1.04-.41-.34,0-.66.08-.96.23-.3.15-.58.36-.84.63v5.91h-1.97Z"/>
        <path class="cls-2" d="m172.46,102.84c-.05.09-.11.15-.17.18-.06.03-.13.05-.22.05-.1,0-.2-.03-.31-.08-.11-.05-.24-.11-.38-.18-.14-.07-.31-.13-.49-.18-.18-.05-.4-.08-.65-.08-.39,0-.69.08-.92.25-.22.16-.33.38-.33.65,0,.18.06.32.17.44.11.12.27.22.45.31.19.09.4.17.64.24.24.07.48.15.73.23.25.09.49.18.73.29.24.11.45.25.64.41.19.17.34.37.45.6.11.23.17.52.17.84,0,.39-.07.76-.21,1.09s-.35.62-.63.86c-.28.24-.62.43-1.02.57-.41.14-.87.2-1.4.2-.28,0-.56-.03-.83-.08-.27-.05-.53-.12-.77-.21-.25-.09-.48-.2-.68-.32-.21-.12-.39-.25-.55-.4l.45-.75c.06-.09.13-.16.21-.21.08-.05.18-.07.3-.07s.24.03.35.1c.11.07.24.14.38.22.14.08.31.15.51.22.19.07.44.1.74.1.23,0,.43-.03.6-.08.17-.06.31-.13.41-.22.11-.09.19-.2.24-.31.05-.12.08-.24.08-.37,0-.19-.06-.35-.17-.47-.11-.12-.27-.23-.45-.32s-.4-.17-.64-.24c-.24-.07-.49-.15-.74-.23-.25-.09-.5-.18-.74-.3-.24-.11-.46-.26-.64-.43-.19-.18-.34-.39-.45-.65-.11-.25-.17-.56-.17-.92,0-.33.07-.65.2-.96.13-.3.33-.57.59-.79s.58-.41.96-.54c.38-.14.83-.2,1.33-.2.56,0,1.07.09,1.54.28.46.19.85.43,1.15.73l-.45.71Z"/>
        <path class="cls-2" d="m176.29,101.25v5.19c0,.5.12.89.35,1.16.23.27.58.41,1.04.41.34,0,.66-.08.96-.23.3-.15.58-.36.84-.62v-5.91h1.97v8.17h-1.2c-.25,0-.42-.12-.5-.36l-.13-.65c-.17.17-.35.33-.53.47-.18.14-.37.26-.58.36-.2.1-.42.18-.66.23-.24.06-.49.08-.76.08-.45,0-.84-.08-1.18-.23-.34-.15-.63-.37-.87-.64-.23-.28-.41-.6-.53-.98-.12-.38-.18-.8-.18-1.25v-5.19h1.97Z"/>
        <path class="cls-2" d="m185.4,97.59v11.84h-1.97v-11.84h1.97Z"/>
        <path class="cls-2" d="m190.02,109.55c-.71,0-1.25-.2-1.63-.6-.38-.4-.57-.95-.57-1.66v-4.56h-.83c-.11,0-.2-.03-.28-.1-.08-.07-.12-.17-.12-.31v-.78l1.31-.21.41-2.23c.02-.11.07-.19.15-.25.08-.06.17-.09.29-.09h1.02v2.57h2.15v1.4h-2.15v4.43c0,.25.06.45.19.6.13.14.3.21.51.21.12,0,.22-.01.31-.04.08-.03.15-.06.21-.09.06-.03.11-.06.16-.09.05-.03.1-.04.14-.04.06,0,.11.01.14.04.04.03.08.07.12.13l.59.96c-.29.24-.62.42-.99.54-.37.12-.76.18-1.16.18Z"/>
        <path class="cls-2" d="m199.77,109.42h-.88c-.19,0-.33-.03-.44-.08-.11-.06-.19-.17-.24-.34l-.17-.58c-.21.19-.41.35-.61.49-.2.14-.41.26-.62.35-.21.1-.44.17-.68.21-.24.05-.5.07-.8.07-.35,0-.66-.05-.96-.14-.29-.09-.54-.23-.75-.42-.21-.19-.37-.42-.49-.7-.12-.28-.18-.6-.18-.97,0-.31.08-.61.24-.92.16-.3.43-.57.81-.81.38-.24.88-.44,1.51-.6.63-.16,1.41-.24,2.33-.24v-.48c0-.55-.12-.96-.35-1.22-.23-.26-.57-.4-1.01-.4-.32,0-.59.04-.8.11-.21.07-.4.16-.55.25-.16.09-.3.18-.43.25-.13.07-.28.11-.44.11-.13,0-.25-.03-.34-.1-.1-.07-.17-.15-.23-.25l-.36-.63c.94-.86,2.07-1.29,3.4-1.29.48,0,.9.08,1.28.24.37.16.69.37.95.65.26.28.46.61.59,1,.14.39.2.81.2,1.27v5.16Zm-3.82-1.23c.2,0,.39-.02.56-.06.17-.04.33-.09.48-.16.15-.07.3-.16.44-.27.14-.11.28-.23.43-.38v-1.37c-.57,0-1.05.04-1.44.11-.38.07-.69.16-.93.28-.23.11-.4.24-.5.39-.1.15-.15.31-.15.49,0,.35.1.6.31.75.2.15.47.23.8.23Z"/>
        <path class="cls-2" d="m201.6,109.42v-8.17h1.2c.26,0,.42.12.5.36l.14.65c.16-.17.34-.32.52-.46.18-.14.38-.26.58-.36.2-.1.42-.18.66-.23.23-.05.49-.08.76-.08.45,0,.84.08,1.19.23.35.15.63.36.86.64.23.27.41.6.53.98.12.38.18.8.18,1.25v5.2h-1.97v-5.2c0-.5-.12-.89-.35-1.16-.23-.27-.58-.41-1.04-.41-.34,0-.66.08-.96.23-.3.15-.58.36-.84.63v5.91h-1.97Z"/>
        <path class="cls-2" d="m216.36,102.98c-.06.07-.12.13-.17.18-.06.04-.14.06-.24.06-.1,0-.2-.03-.29-.09-.1-.06-.21-.13-.34-.21-.13-.08-.29-.15-.47-.21-.18-.06-.41-.09-.68-.09-.35,0-.65.06-.91.19-.26.12-.48.3-.65.54-.17.23-.3.52-.39.85-.08.33-.13.71-.13,1.13s.05.82.14,1.16c.09.34.23.63.4.86.18.23.39.41.64.53.25.12.53.18.84.18s.57-.04.76-.12c.19-.08.36-.16.49-.25.13-.09.25-.18.35-.25.1-.08.21-.12.33-.12.16,0,.28.06.36.18l.57.72c-.22.25-.45.47-.71.64-.25.17-.52.31-.79.41-.27.1-.56.18-.85.22-.29.04-.58.06-.87.06-.5,0-.98-.09-1.43-.28-.45-.19-.84-.46-1.17-.82-.33-.36-.59-.8-.79-1.33-.19-.52-.29-1.12-.29-1.79,0-.6.09-1.16.26-1.67.17-.51.43-.96.76-1.33.34-.37.75-.67,1.24-.88.49-.21,1.06-.32,1.7-.32s1.15.1,1.61.29c.46.2.87.48,1.24.84l-.52.72Z"/>
        <path class="cls-2" d="m221.25,111.67c-.06.14-.13.24-.23.31-.09.07-.24.11-.43.11h-1.47l1.53-3.27-3.31-7.57h1.72c.16,0,.28.04.37.11.09.07.15.16.19.25l1.75,4.24c.06.14.11.28.15.43.04.15.08.3.11.45.04-.15.09-.3.14-.45.05-.14.11-.29.16-.44l1.64-4.23c.04-.11.11-.19.21-.26.1-.07.21-.1.33-.1h1.58l-4.45,10.42Z"/>
        <path class="cls-2" d="m232.18,107.65h4.61v1.77h-6.75v-11.52h2.14v9.75Z"/>
        <path class="cls-2" d="m240.4,109.55c-.71,0-1.25-.2-1.63-.6-.38-.4-.57-.95-.57-1.66v-4.56h-.83c-.11,0-.2-.03-.28-.1-.08-.07-.12-.17-.12-.31v-.78l1.31-.21.41-2.23c.02-.11.07-.19.15-.25.08-.06.17-.09.29-.09h1.02v2.57h2.15v1.4h-2.15v4.43c0,.25.06.45.19.6.13.14.3.21.51.21.12,0,.22-.01.31-.04.08-.03.15-.06.21-.09.06-.03.11-.06.16-.09.05-.03.1-.04.14-.04.06,0,.11.01.14.04.04.03.08.07.12.13l.59.96c-.29.24-.62.42-.99.54-.37.12-.76.18-1.16.18Z"/>
        <path class="cls-2" d="m249.3,109.42c-.25,0-.42-.12-.5-.36l-.16-.79c-.17.19-.35.36-.53.52-.19.15-.39.29-.6.4-.22.11-.45.2-.69.26-.25.06-.51.09-.8.09-.45,0-.85-.09-1.23-.28-.37-.19-.69-.46-.96-.81-.27-.35-.48-.79-.62-1.31-.15-.52-.22-1.12-.22-1.78,0-.61.08-1.17.25-1.69.17-.52.4-.97.71-1.35.31-.38.68-.68,1.11-.9.43-.21.91-.32,1.45-.32.46,0,.85.07,1.17.22s.61.34.87.59v-4.32h1.97v11.84h-1.2Zm-2.62-1.44c.41,0,.76-.09,1.04-.25s.56-.41.81-.73v-3.66c-.22-.27-.47-.46-.73-.57-.26-.11-.55-.17-.85-.17s-.57.06-.81.17c-.24.11-.45.28-.61.51-.17.23-.3.51-.39.86-.09.35-.13.76-.13,1.23s.04.88.12,1.21c.08.33.19.6.33.81.14.21.32.36.53.45.21.09.44.14.69.14Z"/>
      </g>
    </g>
  </g>
</svg>